<svg xmlns="http://www.w3.org/2000/svg" width="224" height="190" viewBox="0 0 224 190" role="img" aria-labelledby="title desc">
  <title id="title">Lab 011 off-side cube in perspective pit</title>
  <desc id="desc">A top-down perspective pit with a solid red shaded cube face proof.</desc>
  <style>
    .bg { fill: #11131a; }
    .pit_top { stroke: #f7d85c; stroke-width: 1.6; opacity: 0.85; vector-effect: non-scaling-stroke; }
    .pit_side { stroke: #66d9ef; stroke-width: 1.1; opacity: 0.55; vector-effect: non-scaling-stroke; }
    .pit_depth { stroke: #ff7a7a; stroke-width: 1.2; opacity: 0.75; vector-effect: non-scaling-stroke; }
    .pit_grid { stroke: #9aa0a6; stroke-width: 1; opacity: 0.45; vector-effect: non-scaling-stroke; }
    .cube { stroke: #ffcccc; stroke-width: 1.2; vector-effect: non-scaling-stroke; }
    .red_light { fill: #ff4a3d; }
    .red_mid { fill: #d92f2b; }
    .red_mid_dark { fill: #b32124; }
    .red_dark { fill: #8f171d; }
    .red_deep { fill: #661016; }
    .label { fill: #ffe3e3; font: 10px monospace; }
    .small { fill: #b8bec8; font: 8px monospace; }
  </style>
  <rect class="bg" x="0" y="0" width="224" height="190" />
  <line class="pit_top" x1="24" y1="24" x2="24" y2="156" />
  <line class="pit_top" x1="59" y1="24" x2="59" y2="156" />
  <line class="pit_top" x1="94" y1="24" x2="94" y2="156" />
  <line class="pit_top" x1="130" y1="24" x2="130" y2="156" />
  <line class="pit_top" x1="165" y1="24" x2="165" y2="156" />
  <line class="pit_top" x1="200" y1="24" x2="200" y2="156" />
  <line class="pit_top" x1="24" y1="24" x2="200" y2="24" />
  <line class="pit_top" x1="24" y1="50" x2="200" y2="50" />
  <line class="pit_top" x1="24" y1="77" x2="200" y2="77" />
  <line class="pit_top" x1="24" y1="103" x2="200" y2="103" />
  <line class="pit_top" x1="24" y1="130" x2="200" y2="130" />
  <line class="pit_top" x1="24" y1="156" x2="200" y2="156" />
  <line class="pit_side" x1="44" y1="40" x2="180" y2="40" />
  <line class="pit_side" x1="180" y1="40" x2="180" y2="140" />
  <line class="pit_side" x1="180" y1="140" x2="44" y2="140" />
  <line class="pit_side" x1="44" y1="140" x2="44" y2="40" />
  <line class="pit_side" x1="60" y1="52" x2="164" y2="52" />
  <line class="pit_side" x1="164" y1="52" x2="164" y2="128" />
  <line class="pit_side" x1="164" y1="128" x2="60" y2="128" />
  <line class="pit_side" x1="60" y1="128" x2="60" y2="52" />
  <line class="pit_side" x1="73" y1="62" x2="151" y2="62" />
  <line class="pit_side" x1="151" y1="62" x2="151" y2="118" />
  <line class="pit_side" x1="151" y1="118" x2="73" y2="118" />
  <line class="pit_side" x1="73" y1="118" x2="73" y2="62" />
  <line class="pit_side" x1="83" y1="70" x2="141" y2="70" />
  <line class="pit_side" x1="141" y1="70" x2="141" y2="110" />
  <line class="pit_side" x1="141" y1="110" x2="83" y2="110" />
  <line class="pit_side" x1="83" y1="110" x2="83" y2="70" />
  <line class="pit_depth" x1="24" y1="24" x2="83" y2="70" />
  <line class="pit_depth" x1="24" y1="156" x2="83" y2="110" />
  <line class="pit_depth" x1="59" y1="24" x2="95" y2="70" />
  <line class="pit_depth" x1="59" y1="156" x2="95" y2="110" />
  <line class="pit_depth" x1="94" y1="24" x2="106" y2="70" />
  <line class="pit_depth" x1="94" y1="156" x2="106" y2="110" />
  <line class="pit_depth" x1="130" y1="24" x2="118" y2="70" />
  <line class="pit_depth" x1="130" y1="156" x2="118" y2="110" />
  <line class="pit_depth" x1="165" y1="24" x2="129" y2="70" />
  <line class="pit_depth" x1="165" y1="156" x2="129" y2="110" />
  <line class="pit_depth" x1="200" y1="24" x2="141" y2="70" />
  <line class="pit_depth" x1="200" y1="156" x2="141" y2="110" />
  <line class="pit_depth" x1="24" y1="50" x2="83" y2="78" />
  <line class="pit_depth" x1="200" y1="50" x2="141" y2="78" />
  <line class="pit_depth" x1="24" y1="77" x2="83" y2="86" />
  <line class="pit_depth" x1="200" y1="77" x2="141" y2="86" />
  <line class="pit_depth" x1="24" y1="103" x2="83" y2="94" />
  <line class="pit_depth" x1="200" y1="103" x2="141" y2="94" />
  <line class="pit_depth" x1="24" y1="130" x2="83" y2="102" />
  <line class="pit_depth" x1="200" y1="130" x2="141" y2="102" />
  <polygon class="cube north_wall red_dark" points="54,65 78,65 71,60 44,60" />
  <polygon class="cube east_wall red_mid" points="78,65 78,82 71,80 71,60" />
  <polygon class="cube south_wall red_deep" points="78,82 54,82 44,80 71,80" />
  <polygon class="cube west_wall red_mid_dark" points="54,82 54,65 44,60 44,80" />
  <polygon class="cube top_face red_light" points="44,60 71,60 71,80 44,80" />
  <text class="label" x="8" y="14">off-side cube in perspective pit</text>
  <text class="small" x="8" y="28">cube is off-center in the governed perspective pit</text>
</svg>
