<svg xmlns="http://www.w3.org/2000/svg" width="228" height="204" viewBox="0 0 228 204" role="img" aria-labelledby="title desc">
  <title id="title">Lab 011 gameboard projection preview</title>
  <desc id="desc">A projected 5 by 5 by 12 pit generated from renderer_intent.json, showing top grid, side/depth rails, and z-level projections.</desc>
  <style>
    .bg { fill: #11131a; }
    .top { stroke: #f7d85c; stroke-width: 2; vector-effect: non-scaling-stroke; }
    .side { stroke: #66d9ef; stroke-width: 1.3; opacity: 0.78; vector-effect: non-scaling-stroke; }
    .depth { stroke: #ff7a7a; stroke-width: 1.8; opacity: 0.92; vector-effect: non-scaling-stroke; }
    .grid { stroke: #9aa0a6; stroke-width: 1; opacity: 0.55; vector-effect: non-scaling-stroke; }
    .cell { fill: #ffffff; opacity: 0.16; stroke: #ffffff; stroke-width: 1; vector-effect: non-scaling-stroke; }
    .label { fill: #e8eaed; font: 10px monospace; }
    .small { fill: #b8bec8; font: 8px monospace; }
  </style>
  <rect class="bg" x="0" y="0" width="228" height="204" />
  <polygon class="cell" points="114,56 132,64 114,72 96,64" />
  <line class="top" x1="114" y1="24" x2="24" y2="64" />
  <line class="top" x1="132" y1="32" x2="42" y2="72" />
  <line class="top" x1="150" y1="40" x2="60" y2="80" />
  <line class="top" x1="168" y1="48" x2="78" y2="88" />
  <line class="top" x1="186" y1="56" x2="96" y2="96" />
  <line class="top" x1="204" y1="64" x2="114" y2="104" />
  <line class="top" x1="114" y1="24" x2="204" y2="64" />
  <line class="top" x1="96" y1="32" x2="186" y2="72" />
  <line class="top" x1="78" y1="40" x2="168" y2="80" />
  <line class="top" x1="60" y1="48" x2="150" y2="88" />
  <line class="top" x1="42" y1="56" x2="132" y2="96" />
  <line class="top" x1="24" y1="64" x2="114" y2="104" />
  <line class="depth" x1="114" y1="24" x2="114" y2="96" />
  <line class="depth" x1="204" y1="64" x2="204" y2="136" />
  <line class="depth" x1="24" y1="64" x2="24" y2="136" />
  <line class="depth" x1="114" y1="104" x2="114" y2="176" />
  <line class="side" x1="114" y1="42" x2="204" y2="82" />
  <line class="side" x1="204" y1="82" x2="114" y2="122" />
  <line class="side" x1="114" y1="122" x2="24" y2="82" />
  <line class="side" x1="24" y1="82" x2="114" y2="42" />
  <line class="side" x1="114" y1="60" x2="204" y2="100" />
  <line class="side" x1="204" y1="100" x2="114" y2="140" />
  <line class="side" x1="114" y1="140" x2="24" y2="100" />
  <line class="side" x1="24" y1="100" x2="114" y2="60" />
  <line class="side" x1="114" y1="78" x2="204" y2="118" />
  <line class="side" x1="204" y1="118" x2="114" y2="158" />
  <line class="side" x1="114" y1="158" x2="24" y2="118" />
  <line class="side" x1="24" y1="118" x2="114" y2="78" />
  <line class="side" x1="114" y1="96" x2="204" y2="136" />
  <line class="side" x1="204" y1="136" x2="114" y2="176" />
  <line class="side" x1="114" y1="176" x2="24" y2="136" />
  <line class="side" x1="24" y1="136" x2="114" y2="96" />
  <text class="label" x="8" y="14">Lab 011 gameboard projection</text>
  <text class="small" x="8" y="28">5x5x12 pit · top grid + side/depth projections · generated from renderer_intent.json</text>
</svg>
